name C:/MyDriveSym/Projects/mobilecap/Data\Session20210827_0002\mocap\ForceDataProcessed\walking3_forces.mot
datacolumns 19
datarows 22
range 0.67950000 0.69000000
endheader 
time	R_ground_force_vx	R_ground_force_vy	R_ground_force_vz	R_ground_force_px	R_ground_force_py	R_ground_force_pz	R_ground_torque_x	R_ground_torque_y	R_ground_torque_z	L_ground_force_vx	L_ground_force_vy	L_ground_force_vz	L_ground_force_px	L_ground_force_py	L_ground_force_pz	L_ground_torque_x	L_ground_torque_y	L_ground_torque_z	
          0.67950000	         38.97851200	        160.77561900	          2.54148300	          0.37838100	          0.00600000	         -0.19094900	          0.00000000	         -1.02193500	          0.00000000	        -67.79204000	        509.75576400	         12.19280500	          0.83540200	          0.00600000	         -0.29616400	          0.00000000	          0.38007100	          0.00000000	
          0.68000000	         38.61831700	        158.73422500	          2.55540700	          0.37855800	          0.00600000	         -0.19092200	          0.00000000	         -1.00828800	          0.00000000	        -68.07775400	        511.32399000	         12.35363700	          0.83560400	          0.00600000	         -0.29617200	          0.00000000	          0.37857200	          0.00000000	
          0.68050000	         38.25866300	        156.70449300	          2.56870600	          0.37873600	          0.00600000	         -0.19089500	          0.00000000	         -0.99472000	          0.00000000	        -68.36076100	        512.88312200	         12.51414600	          0.83580600	          0.00600000	         -0.29618000	          0.00000000	          0.37706300	          0.00000000	
          0.68100000	         37.89958400	        154.68650200	          2.58138800	          0.37891600	          0.00600000	         -0.19086800	          0.00000000	         -0.98123300	          0.00000000	        -68.64105200	        514.43313000	         12.67431900	          0.83600800	          0.00600000	         -0.29618800	          0.00000000	          0.37554600	          0.00000000	
          0.68150000	         37.54111500	        152.68032700	          2.59346300	          0.37909900	          0.00600000	         -0.19084000	          0.00000000	         -0.96782600	          0.00000000	        -68.91861600	        515.97398800	         12.83413800	          0.83620900	          0.00600000	         -0.29619500	          0.00000000	          0.37401900	          0.00000000	
          0.68200000	         37.18328900	        150.68604500	          2.60493800	          0.37928300	          0.00600000	         -0.19081100	          0.00000000	         -0.95450100	          0.00000000	        -69.19344200	        517.50566800	         12.99359000	          0.83641100	          0.00600000	         -0.29620300	          0.00000000	          0.37248400	          0.00000000	
          0.68250000	         36.82614000	        148.70372600	          2.61582200	          0.37947000	          0.00600000	         -0.19078300	          0.00000000	         -0.94125700	          0.00000000	        -69.46552200	        519.02814500	         13.15265800	          0.83661200	          0.00600000	         -0.29621000	          0.00000000	          0.37094100	          0.00000000	
          0.68300000	         36.46969900	        146.73344100	          2.62612300	          0.37965800	          0.00600000	         -0.19075300	          0.00000000	         -0.92809600	          0.00000000	        -69.73484400	        520.54139100	         13.31132900	          0.83681400	          0.00600000	         -0.29621700	          0.00000000	          0.36939100	          0.00000000	
          0.68350000	         36.11400000	        144.77525800	          2.63584800	          0.37984900	          0.00600000	         -0.19072400	          0.00000000	         -0.91501800	          0.00000000	        -70.00140200	        522.04538300	         13.46958600	          0.83701500	          0.00600000	         -0.29622500	          0.00000000	          0.36783300	          0.00000000	
          0.68400000	         35.75907600	        142.82924200	          2.64500700	          0.38004300	          0.00600000	         -0.19069400	          0.00000000	         -0.90202400	          0.00000000	        -70.26518500	        523.54009500	         13.62741600	          0.83721500	          0.00600000	         -0.29623200	          0.00000000	          0.36626800	          0.00000000	
          0.68450000	         35.40495600	        140.89545700	          2.65360700	          0.38023800	          0.00600000	         -0.19066300	          0.00000000	         -0.88911300	          0.00000000	        -70.52618700	        525.02550300	         13.78480400	          0.83741600	          0.00600000	         -0.29623900	          0.00000000	          0.36469700	          0.00000000	
          0.68500000	         35.05167300	        138.97396500	          2.66165700	          0.38043600	          0.00600000	         -0.19063200	          0.00000000	         -0.87628600	          0.00000000	        -70.78439700	        526.50158200	         13.94173400	          0.83761600	          0.00600000	         -0.29624600	          0.00000000	          0.36312000	          0.00000000	
          0.68550000	         34.69925800	        137.06482500	          2.66916400	          0.38063700	          0.00600000	         -0.19060000	          0.00000000	         -0.86354400	          0.00000000	        -71.03981000	        527.96831000	         14.09819400	          0.83781700	          0.00600000	         -0.29625300	          0.00000000	          0.36153700	          0.00000000	
          0.68600000	         34.34774200	        135.16809400	          2.67613700	          0.38084000	          0.00600000	         -0.19056800	          0.00000000	         -0.85088700	          0.00000000	        -71.29241800	        529.42566300	         14.25416900	          0.83801700	          0.00600000	         -0.29625900	          0.00000000	          0.35994800	          0.00000000	
          0.68650000	         33.99715300	        133.28382700	          2.68258400	          0.38104600	          0.00600000	         -0.19053500	          0.00000000	         -0.83831600	          0.00000000	        -71.54221300	        530.87361900	         14.40964500	          0.83821700	          0.00600000	         -0.29626600	          0.00000000	          0.35835500	          0.00000000	
          0.68700000	         33.64752200	        131.41207900	          2.68851200	          0.38125400	          0.00600000	         -0.19050200	          0.00000000	         -0.82583100	          0.00000000	        -71.78919000	        532.31215600	         14.56460700	          0.83841700	          0.00600000	         -0.29627300	          0.00000000	          0.35675700	          0.00000000	
          0.68750000	         33.29887900	        129.55289900	          2.69393100	          0.38146500	          0.00600000	         -0.19046800	          0.00000000	         -0.81343200	          0.00000000	        -72.03334100	        533.74125200	         14.71904200	          0.83861600	          0.00600000	         -0.29627900	          0.00000000	          0.35515600	          0.00000000	
          0.68800000	         32.95125100	        127.70633600	          2.69884700	          0.38168000	          0.00600000	         -0.19043400	          0.00000000	         -0.80112000	          0.00000000	        -72.27466100	        535.16088600	         14.87293700	          0.83881600	          0.00600000	         -0.29628600	          0.00000000	          0.35355000	          0.00000000	
          0.68850000	         32.60466800	        125.87243800	          2.70326900	          0.38189700	          0.00600000	         -0.19039900	          0.00000000	         -0.78889500	          0.00000000	        -72.51314500	        536.57103700	         15.02627800	          0.83901500	          0.00600000	         -0.29629200	          0.00000000	          0.35194200	          0.00000000	
          0.68900000	         32.25915800	        124.05125000	          2.70720400	          0.38211700	          0.00600000	         -0.19036300	          0.00000000	         -0.77675800	          0.00000000	        -72.74878600	        537.97168500	         15.17905100	          0.83921400	          0.00600000	         -0.29629800	          0.00000000	          0.35033100	          0.00000000	
          0.68950000	         31.91474700	        122.24281400	          2.71066100	          0.38234000	          0.00600000	         -0.19032700	          0.00000000	         -0.76470800	          0.00000000	        -72.98158100	        539.36281100	         15.33124400	          0.83941300	          0.00600000	         -0.29630400	          0.00000000	          0.34871700	          0.00000000	
          0.69000000	         31.57146200	        120.44717100	          2.71364700	          0.38256600	          0.00600000	         -0.19029000	          0.00000000	         -0.75274700	          0.00000000	        -73.21152300	        540.74439400	         15.48284200	          0.83961200	          0.00600000	         -0.29631100	          0.00000000	          0.34710200	          0.00000000	
